<svg width="154" height="27" viewBox="0 0 154 27" fill="none" xmlns="http://www.w3.org/2000/svg">
<path fill-rule="evenodd" clip-rule="evenodd" d="M18.3954 12.3296C18.17 17.0767 16.4104 21.4497 13.1989 24.9683C13.1729 24.9983 13.1455 25.0275 13.1178 25.0563C12.4644 25.7412 11.6061 26.2286 10.6414 26.4196C10.3698 26.4742 10.0904 26.5048 9.80443 26.5094C9.77759 26.51 9.75017 26.51 9.72333 26.51C9.69649 26.51 9.66908 26.51 9.64224 26.5094C8.474 26.4771 7.47776 25.7533 7.04948 24.7328C7.03649 24.7013 7.0287 24.667 7.0287 24.6309C7.0287 24.4863 7.14587 24.3695 7.28959 24.3695C7.33259 24.3695 7.373 24.3793 7.40821 24.3977C7.41051 24.3992 7.41283 24.4 7.41427 24.4006C7.80907 24.6021 8.25524 24.7152 8.72796 24.7152C8.82753 24.7152 8.92623 24.71 9.0232 24.6999C10.4852 24.553 11.6269 23.3181 11.6269 21.8163V14.2355C11.6269 13.6239 11.1311 13.1284 10.5199 13.1284C9.90832 13.1284 9.4128 13.6239 9.4128 14.2355V21.7375C9.41482 21.7637 9.41569 21.7903 9.41569 21.8171C9.41569 22.4284 8.91988 22.9242 8.30863 22.9242C7.89825 22.9242 7.56145 22.6872 7.34876 22.3683C6.93924 21.7545 6.55483 20.9906 6.24458 20.3213C6.08383 19.9742 5.93232 19.6215 5.79091 19.2642C5.5407 18.6302 5.34589 18.0143 5.15051 17.3638C5.9912 17.565 6.81254 17.5358 7.62177 17.3638V14.3102C7.6209 14.2851 7.6209 14.2606 7.6209 14.2355C7.6209 12.6349 8.91844 11.3365 10.5199 11.3365C12.1201 11.3365 13.418 12.6349 13.418 14.2355V15.8221C15.2624 14.9004 16.9486 13.7717 18.3954 12.3296V12.3296Z" fill="#505458"/>
<path fill-rule="evenodd" clip-rule="evenodd" d="M17.3471 0.194176C17.3979 0.267767 17.3791 0.369064 17.3061 0.419279C17.2784 0.438326 17.2464 0.447273 17.2155 0.448427C17.2094 0.44785 17.2025 0.446984 17.1964 0.447561C14.593 0.255357 11.2695 1.24986 8.21096 3.35631C3.13801 6.84975 0.663285 12.1131 2.70193 15.0733C4.74001 18.0328 10.5397 17.5976 15.6126 14.1039C17.8648 12.553 19.6051 10.6531 20.6648 8.76025C20.67 8.75303 20.6743 8.74437 20.6786 8.73571C20.6971 8.70743 20.7211 8.68146 20.7508 8.66126C20.8691 8.57959 21.033 8.60989 21.1147 8.72821C21.1623 8.79747 21.1719 8.8829 21.1482 8.95764C21.1407 8.97496 21.1332 8.99141 21.1251 9.00786C20.0533 11.355 18.0348 13.7362 15.3073 15.6147C9.73216 19.4541 3.24911 19.7756 0.876558 16.3304C-1.49629 12.8848 1.1158 6.94296 6.69092 3.1035C10.2698 0.6389 14.223 -0.376376 17.2218 0.124336C17.2345 0.126645 17.2469 0.128376 17.2585 0.130684C17.2596 0.130684 17.2602 0.131262 17.2602 0.131262C17.294 0.141363 17.3254 0.162719 17.3471 0.194176V0.194176Z" fill="#505458"/>
<path fill-rule="evenodd" clip-rule="evenodd" d="M18.7529 4.7154V4.73964C18.7494 6.18665 18.4972 7.57508 18.034 8.8625C18.0308 8.87462 18.0265 8.88675 18.0221 8.89771C17.9806 8.99035 17.8888 9.055 17.7817 9.055C17.6377 9.055 17.5208 8.93696 17.5208 8.79266C17.5208 8.78401 17.5208 8.77535 17.5217 8.76669C17.6016 8.20422 17.6421 7.63078 17.6421 7.04638C17.6421 7.03339 17.6421 7.01896 17.6409 7.00597C17.6386 6.11797 17.5416 5.25189 17.3589 4.41728C17.3491 4.35494 17.335 4.29289 17.3177 4.23287C17.2071 3.83518 16.9636 3.49435 16.6383 3.26059C16.5234 3.17776 16.3979 3.10763 16.2657 3.05424C16.0582 2.97026 15.8311 2.92322 15.593 2.92322C15.3373 2.92322 15.0949 2.97661 14.8741 3.07271C14.4932 3.25626 14.0672 3.359 13.617 3.359C13.5111 3.359 13.4075 3.35352 13.3047 3.3414C12.905 3.29897 12.5293 3.17545 12.1951 2.98556C12.1841 2.98008 12.172 2.97344 12.1613 2.9668C12.1613 2.9668 12.1602 2.96565 12.159 2.96478C12.0903 2.91774 12.0453 2.83924 12.0453 2.74949C12.0453 2.60548 12.1633 2.4886 12.3076 2.4886C12.3347 2.4886 12.361 2.49293 12.385 2.50043C12.3873 2.50043 12.3884 2.50159 12.3904 2.50274C12.4069 2.51024 12.4234 2.51804 12.4398 2.52467C12.6603 2.6228 12.905 2.67734 13.1627 2.67734C13.5243 2.67734 13.8606 2.57027 14.1425 2.3847C14.1786 2.36191 14.2124 2.33766 14.2461 2.3114C14.2473 2.3114 14.2473 2.3114 14.2484 2.31054C14.7082 2.00347 15.2597 1.82541 15.8539 1.82541C15.959 1.82541 16.0637 1.83089 16.1653 1.84301C16.2571 1.85167 16.3477 1.86581 16.436 1.88457C16.4623 1.8889 16.4885 1.89554 16.5148 1.90189C16.6753 1.93911 16.8305 1.98933 16.9789 2.05167C18.0187 2.48946 18.7494 3.51744 18.7529 4.7154V4.7154Z" fill="#505458"/>
<path fill-rule="evenodd" clip-rule="evenodd" d="M8.71606 8.50316C8.71606 7.51386 9.51807 6.71185 10.5077 6.71185C11.497 6.71185 12.2993 7.51386 12.2993 8.50316C12.2993 9.49275 11.497 10.2948 10.5077 10.2948C9.51807 10.2948 8.71606 9.49275 8.71606 8.50316Z" fill="#505458"/>
<path fill-rule="evenodd" clip-rule="evenodd" d="M14.4018 5.53236C14.4018 5.69628 14.3089 5.83827 14.1735 5.90926C14.1703 5.91013 14.168 5.91244 14.1648 5.91359C14.1472 5.92023 14.1299 5.92773 14.1123 5.93437C14.1092 5.93523 14.1057 5.93639 14.1014 5.9387C13.846 6.03913 13.5793 6.11676 13.3031 6.17131C13.1337 6.20507 12.9611 6.22931 12.7854 6.2423C12.6564 6.25442 12.5242 6.2599 12.392 6.2599C11.3808 6.2599 10.4437 5.9387 9.67803 5.3947L9.67688 5.39354C9.63763 5.36209 9.59723 5.33236 9.55567 5.30408C9.08583 4.97652 8.5147 4.78432 7.89883 4.78432C6.45036 4.78432 5.25009 5.84577 5.0348 7.2342C5.012 7.38052 4.99987 7.53001 4.99987 7.68297V7.69393C4.99987 7.71471 4.99785 7.73549 4.9967 7.75511C4.97044 8.1678 4.95745 8.58511 4.95745 9.00444C4.95745 9.69591 4.99237 10.3796 5.06221 11.0535C5.17361 12.1403 5.37245 13.2009 5.65095 14.2286C5.6521 14.2309 5.65297 14.2341 5.65297 14.2364C5.66076 14.2635 5.66827 14.2921 5.67721 14.3192C5.68154 14.3432 5.68356 14.3686 5.68356 14.3934C5.68356 14.6271 5.49482 14.8162 5.26105 14.8162C5.08732 14.8162 4.93783 14.7126 4.87318 14.5628C4.86683 14.5486 4.86135 14.5345 4.85673 14.5192C4.08242 12.4243 3.65213 10.1634 3.6325 7.80418C3.6325 7.76493 3.63135 7.72654 3.63135 7.68729V7.63592C3.64664 6.06424 4.43538 4.67725 5.63565 3.83831C6.29539 3.37627 7.0795 3.0793 7.92827 3.01033C8.05698 2.9985 8.18916 2.99301 8.32134 2.99301C9.55567 2.99301 10.6783 3.47035 11.515 4.24898C11.5608 4.29804 11.6102 4.34623 11.6616 4.39212C12.037 4.72949 12.5025 4.97104 13.0168 5.0758C13.2047 5.11505 13.3992 5.13467 13.5989 5.13467C13.6907 5.13467 13.7813 5.13034 13.8711 5.12169C13.8765 5.12169 13.882 5.12169 13.8864 5.12053C13.9135 5.11851 13.9409 5.11505 13.9672 5.11072C13.9715 5.10957 13.9747 5.10957 13.979 5.10957C14.2128 5.10957 14.4018 5.29859 14.4018 5.53236V5.53236Z" fill="#505458"/>
<path fill-rule="evenodd" clip-rule="evenodd" d="M18.4623 12.0292C18.2372 16.7763 16.4773 21.1494 13.2661 24.6683C13.2398 24.698 13.2124 24.7271 13.185 24.756C12.5316 25.4408 11.673 25.9283 10.7083 26.1196C10.4367 26.1739 10.1576 26.2044 9.87132 26.2091C9.84448 26.2096 9.81707 26.2096 9.79023 26.2096C9.76339 26.2096 9.73597 26.2096 9.70913 26.2091C8.54089 26.1767 7.54494 25.4529 7.11637 24.4325C7.10339 24.401 7.0956 24.3667 7.0956 24.3309C7.0956 24.186 7.21277 24.0691 7.35649 24.0691C7.39949 24.0691 7.43989 24.0789 7.4751 24.0974C7.47741 24.0989 7.47972 24.0997 7.48145 24.1003C7.87596 24.3017 8.32213 24.4149 8.79486 24.4149C8.89442 24.4149 8.99312 24.4094 9.09038 24.3996C10.5524 24.2527 11.6938 23.0178 11.6938 21.5159V13.9351C11.6938 13.3239 11.198 12.8281 10.5868 12.8281C9.9755 12.8281 9.4797 13.3239 9.4797 13.9351V21.4372C9.482 21.4634 9.48287 21.49 9.48287 21.5168C9.48287 22.128 8.98706 22.6239 8.37552 22.6239C7.96514 22.6239 7.62835 22.3869 7.41594 22.0683C7.00613 21.4542 6.62172 20.6903 6.31148 20.021C6.15073 19.6738 5.99951 19.3212 5.8578 18.9639C5.60759 18.3298 5.41279 17.714 5.21741 17.0635C6.05838 17.2646 6.87944 17.2355 7.68866 17.0635V14.0102C7.6878 13.9848 7.6878 13.9602 7.6878 13.9351C7.6878 12.3346 8.98533 11.0362 10.5868 11.0362C12.1873 11.0362 13.4848 12.3346 13.4848 13.9351V15.5218C15.3293 14.6001 17.0155 13.4714 18.4623 12.0292V12.0292Z" fill="#505458"/>
<path fill-rule="evenodd" clip-rule="evenodd" d="M18.8195 4.53959V4.56383C18.8163 6.01084 18.5638 7.39927 18.1009 8.68669C18.0974 8.69881 18.0931 8.71093 18.0887 8.7219C18.0472 8.81454 17.9554 8.87918 17.8483 8.87918C17.7043 8.87918 17.5874 8.76115 17.5874 8.61685C17.5874 8.60819 17.5874 8.59954 17.5886 8.59088C17.6682 8.02841 17.7087 7.45497 17.7087 6.87056C17.7087 6.85758 17.7087 6.84315 17.7075 6.83016C17.7055 5.94216 17.6082 5.07608 17.4258 4.24147C17.416 4.17942 17.4016 4.11708 17.3843 4.05705C17.274 3.65937 17.0305 3.31854 16.7049 3.08478C16.5903 3.00195 16.4645 2.93211 16.3323 2.87843C16.1248 2.79445 15.8977 2.74741 15.6596 2.74741C15.4039 2.74741 15.1615 2.8008 14.941 2.8969C14.5598 3.08045 14.1338 3.18319 13.6839 3.18319C13.578 3.18319 13.4741 3.17771 13.3713 3.16559C12.9716 3.12316 12.5959 2.99964 12.2617 2.80975C12.2507 2.80427 12.2389 2.79763 12.2279 2.79099C12.2279 2.79099 12.2268 2.78983 12.2256 2.78897C12.1569 2.74193 12.1122 2.66343 12.1122 2.57368C12.1122 2.42967 12.2299 2.31279 12.3742 2.31279C12.4016 2.31279 12.4276 2.31712 12.4519 2.32462C12.4539 2.32462 12.455 2.32577 12.4573 2.32693C12.4735 2.33443 12.49 2.34222 12.5064 2.34886C12.7269 2.44698 12.9716 2.50153 13.2293 2.50153C13.591 2.50153 13.9275 2.39446 14.2091 2.20889C14.2452 2.18581 14.279 2.16185 14.313 2.13588C14.3139 2.13588 14.3139 2.13588 14.315 2.13472C14.7751 1.82766 15.3266 1.6496 15.9208 1.6496C16.0256 1.6496 16.1303 1.65508 16.2319 1.6672C16.3237 1.67586 16.4143 1.69 16.5029 1.70876C16.5292 1.71309 16.5551 1.71973 16.5814 1.72608C16.7421 1.7633 16.8971 1.81352 17.0457 1.87586C18.0856 2.31365 18.8163 3.34163 18.8195 4.53959V4.53959Z" fill="#505458"/>
<path fill-rule="evenodd" clip-rule="evenodd" d="M8.78259 8.28584C8.78259 7.29654 9.58489 6.49454 10.5742 6.49454C11.5638 6.49454 12.3658 7.29654 12.3658 8.28584C12.3658 9.27544 11.5638 10.0774 10.5742 10.0774C9.58489 10.0774 8.78259 9.27544 8.78259 8.28584Z" fill="#505458"/>
<path fill-rule="evenodd" clip-rule="evenodd" d="M14.4684 5.31507C14.4684 5.47899 14.3758 5.62098 14.2402 5.69198C14.237 5.69313 14.2347 5.69515 14.2315 5.6963C14.2139 5.70294 14.1966 5.71045 14.179 5.71708C14.1758 5.71824 14.1726 5.7191 14.1683 5.72141C13.9126 5.82184 13.6462 5.89948 13.3698 5.95402C13.2003 5.98779 13.0278 6.01203 12.852 6.02501C12.7233 6.03714 12.5911 6.04262 12.4589 6.04262C11.4474 6.04262 10.5103 5.72141 9.74468 5.17741L9.74353 5.17655C9.70428 5.1448 9.66388 5.11536 9.62232 5.08679C9.15277 4.75924 8.58135 4.56703 7.96548 4.56703C6.51701 4.56703 5.31674 5.62848 5.10173 7.01691C5.07865 7.16323 5.06681 7.31273 5.06681 7.46568V7.47665C5.06681 7.49742 5.06451 7.5182 5.06335 7.53783C5.03709 7.95052 5.0241 8.36783 5.0241 8.78716C5.0241 9.47863 5.05902 10.1623 5.12886 10.8362C5.24026 11.923 5.4391 12.9836 5.7176 14.0113C5.71875 14.0136 5.71991 14.0168 5.71991 14.0191C5.72741 14.0462 5.73521 14.0748 5.74386 14.1019C5.74819 14.1259 5.7505 14.1513 5.7505 14.1761C5.7505 14.4098 5.56147 14.5989 5.3277 14.5989C5.15397 14.5989 5.00448 14.4953 4.94012 14.3455C4.93348 14.3314 4.928 14.3172 4.92367 14.3019C4.14907 12.207 3.71878 9.94615 3.69915 7.58689C3.69915 7.54764 3.698 7.50926 3.698 7.47001V7.41864C3.71329 5.84695 4.50203 4.45996 5.70231 3.62102C6.36204 3.15898 7.14616 2.86202 7.99492 2.79304C8.12392 2.78121 8.2561 2.77573 8.38828 2.77573C9.62232 2.77573 10.7452 3.25306 11.5819 4.03169C11.6278 4.08075 11.6768 4.12895 11.7282 4.17483C12.104 4.5122 12.5692 4.75375 13.0835 4.85851C13.2713 4.89776 13.4659 4.91739 13.6659 4.91739C13.7573 4.91739 13.8482 4.91306 13.9377 4.9044C13.9432 4.9044 13.9487 4.9044 13.953 4.90325C13.9804 4.90123 14.0076 4.89776 14.0338 4.89344C14.0381 4.89228 14.0413 4.89228 14.0459 4.89228C14.2797 4.89228 14.4684 5.08131 14.4684 5.31507V5.31507Z" fill="#505458"/>
<path fill-rule="evenodd" clip-rule="evenodd" d="M17.3739 0.318861C17.4244 0.392453 17.406 0.493749 17.333 0.543965C17.3052 0.563012 17.2732 0.571959 17.2423 0.572824C17.2363 0.572536 17.2294 0.571669 17.2233 0.572247C14.6199 0.379754 11.2964 1.37454 8.23782 3.48099C3.16486 6.97443 0.69014 12.2375 2.72879 15.1979C4.76686 18.1575 10.5665 17.7223 15.6395 14.2286C17.8914 12.6776 19.6319 10.7778 20.6916 8.88493C20.6968 8.87772 20.7012 8.86906 20.7055 8.8604C20.724 8.83212 20.7479 8.80615 20.7776 8.78594C20.896 8.70427 21.0599 8.73428 21.1416 8.8529C21.1892 8.92216 21.1987 9.00758 21.175 9.08233C21.1675 9.09964 21.16 9.11581 21.152 9.13254C20.0801 11.4797 18.0617 13.8609 15.3341 15.7393C9.75872 19.5788 3.27597 19.9003 0.903124 16.4551C-1.46943 13.0095 1.14266 7.06765 6.71778 3.22819C10.2967 0.763297 14.2499 -0.251692 17.2487 0.24902C17.2614 0.251329 17.2738 0.253061 17.2853 0.25537C17.2865 0.25537 17.2868 0.255948 17.2868 0.255948C17.3208 0.266049 17.352 0.287404 17.3739 0.318861V0.318861Z" fill="#505458"/>
<path fill-rule="evenodd" clip-rule="evenodd" d="M18.8467 4.54215V4.56639C18.8435 6.01369 18.5913 7.40183 18.1281 8.68954C18.1249 8.70138 18.1203 8.7135 18.116 8.72447C18.0744 8.8171 17.9829 8.88175 17.8758 8.88175C17.7315 8.88175 17.6147 8.76371 17.6147 8.61942C17.6147 8.61076 17.6147 8.6021 17.6158 8.59344C17.6955 8.03097 17.7359 7.45753 17.7359 6.87313C17.7359 6.86014 17.7359 6.84571 17.7347 6.83273C17.7327 5.94472 17.6354 5.07865 17.4531 4.24403C17.4432 4.18198 17.4291 4.11965 17.4115 4.05962C17.3012 3.66194 17.0577 3.32111 16.7321 3.08734C16.6176 3.00452 16.492 2.93468 16.3598 2.881C16.1523 2.79702 15.9249 2.74998 15.6868 2.74998C15.4314 2.74998 15.189 2.80337 14.9682 2.89976C14.587 3.08301 14.161 3.18575 13.7111 3.18575C13.6052 3.18575 13.5013 3.18027 13.3986 3.16815C12.9988 3.12573 12.6234 3.00221 12.2889 2.81231C12.2779 2.80683 12.2661 2.80019 12.2551 2.79355C12.2551 2.79355 12.254 2.79269 12.2531 2.79153C12.1841 2.74449 12.1394 2.66599 12.1394 2.57624C12.1394 2.43223 12.2574 2.31535 12.4014 2.31535C12.4289 2.31535 12.4551 2.31968 12.4791 2.32718C12.4814 2.32718 12.4823 2.32834 12.4846 2.32949C12.501 2.337 12.5172 2.34479 12.5336 2.35143C12.7544 2.44955 12.9988 2.50409 13.2566 2.50409C13.6182 2.50409 13.9547 2.39731 14.2363 2.21146C14.2724 2.18866 14.3062 2.16442 14.3402 2.13844C14.3414 2.13844 14.3414 2.13844 14.3423 2.13729C14.8023 1.83022 15.3538 1.65216 15.948 1.65216C16.0528 1.65216 16.1575 1.65765 16.2591 1.66977C16.3509 1.67842 16.4415 1.69285 16.5301 1.71132C16.5564 1.71565 16.5826 1.72229 16.6086 1.72864C16.7694 1.76587 16.9243 1.81608 17.073 1.87842C18.1128 2.31651 18.8435 3.34419 18.8467 4.54215V4.54215Z" fill="#505458"/>
<path d="M33.8672 17.4651C32.8478 17.4651 31.9146 17.2916 31.0675 16.9446C30.2348 16.6104 29.5456 16.1284 29 15.4986L30.8952 13.4163C31.7136 14.406 32.6396 14.9009 33.6734 14.9009C35.1092 14.9009 35.827 14.1554 35.827 12.6644V4.31616H30.5506V1.80976H39.3159V12.4909C39.3159 14.149 38.8565 15.3893 37.9376 16.2119C37.0187 17.0474 35.6619 17.4651 33.8672 17.4651Z" fill="#505458"/>
<path d="M48.039 15.46C46.8186 15.46 45.7202 15.2351 44.7439 14.7852C43.782 14.3225 43.0282 13.6862 42.4826 12.8765C41.937 12.0667 41.6642 11.1477 41.6642 10.1194C41.6642 9.09117 41.937 8.17216 42.4826 7.3624C43.0282 6.55264 43.782 5.92282 44.7439 5.47296C45.7202 5.01024 46.8186 4.77888 48.039 4.77888C49.2594 4.77888 50.3506 5.01024 51.3125 5.47296C52.2745 5.92282 53.0283 6.55264 53.5738 7.3624C54.1194 8.17216 54.3922 9.09117 54.3922 10.1194C54.3922 11.1477 54.1194 12.0667 53.5738 12.8765C53.0283 13.6862 52.2745 14.3225 51.3125 14.7852C50.3506 15.2351 49.2594 15.46 48.039 15.46ZM48.039 12.9922C48.9004 12.9922 49.604 12.7351 50.1496 12.221C50.7095 11.694 50.9895 10.9935 50.9895 10.1194C50.9895 9.24541 50.7095 8.55133 50.1496 8.0372C49.604 7.51021 48.9004 7.24672 48.039 7.24672C47.1775 7.24672 46.4668 7.51021 45.9069 8.0372C45.3469 8.55133 45.067 9.24541 45.067 10.1194C45.067 10.9935 45.3469 11.694 45.9069 12.221C46.4668 12.7351 47.1775 12.9922 48.039 12.9922Z" fill="#505458"/>
<path d="M68.3106 4.93312V13.5706C68.3106 15.4728 67.7722 16.8867 66.6954 17.8122C65.6186 18.7376 64.0536 19.2003 62.0005 19.2003C60.9093 19.2003 59.8755 19.0782 58.8992 18.834C57.9373 18.5898 57.1261 18.2363 56.4656 17.7736L57.8009 15.6142C58.289 15.9741 58.8849 16.2569 59.5884 16.4626C60.2919 16.6682 61.0026 16.771 61.7205 16.771C62.8404 16.771 63.6588 16.5397 64.1756 16.077C64.6925 15.6142 64.9509 14.9073 64.9509 13.9562V13.6091C64.5202 13.9947 64.0105 14.2903 63.4219 14.496C62.8332 14.7016 62.2015 14.8045 61.5267 14.8045C60.0047 14.8045 58.7987 14.4189 57.9085 13.6477C57.0184 12.8636 56.5733 11.694 56.5733 10.1387V4.93312H59.933V9.69528C59.933 11.3791 60.7154 12.221 62.2804 12.221C63.0844 12.221 63.7305 11.9896 64.2187 11.5269C64.7069 11.0513 64.9509 10.3508 64.9509 9.42536V4.93312H68.3106Z" fill="#505458"/>
<path d="M77.7592 1.80976H84.6078C86.2445 1.80976 87.6875 2.09253 88.9366 2.65808C90.2 3.21077 91.1763 3.99483 91.8655 5.01024C92.569 6.02565 92.9208 7.20816 92.9208 8.55776C92.9208 9.90736 92.569 11.0899 91.8655 12.1053C91.1763 13.1207 90.2 13.9112 88.9366 14.4767C87.6875 15.0294 86.2445 15.3058 84.6078 15.3058H77.7592V1.80976ZM84.4355 12.7415C85.943 12.7415 87.1419 12.3688 88.032 11.6233C88.9366 10.8649 89.3888 9.84309 89.3888 8.55776C89.3888 7.27242 88.9366 6.25701 88.032 5.51152C87.1419 4.75317 85.943 4.374 84.4355 4.374H81.2481V12.7415H84.4355Z" fill="#505458"/>
<path d="M101.151 13.05C101.754 13.05 102.286 12.9729 102.745 12.8186C103.219 12.6515 103.657 12.3945 104.059 12.0474L105.846 13.7826C104.755 14.9009 103.161 15.46 101.065 15.46C99.7587 15.46 98.6029 15.2351 97.5979 14.7852C96.5929 14.3225 95.8175 13.6862 95.272 12.8765C94.7264 12.0667 94.4536 11.1477 94.4536 10.1194C94.4536 9.10402 94.7192 8.19144 95.2504 7.38168C95.796 6.55906 96.5354 5.92282 97.4687 5.47296C98.4163 5.01024 99.4787 4.77888 100.656 4.77888C101.762 4.77888 102.767 4.99096 103.671 5.41512C104.576 5.82642 105.294 6.43053 105.825 7.22744C106.37 8.01149 106.643 8.94336 106.643 10.023L98.0717 11.5076C98.3158 12.0217 98.6962 12.4073 99.2131 12.6644C99.7443 12.9215 100.39 13.05 101.151 13.05ZM100.656 7.05392C99.809 7.05392 99.1198 7.29813 98.5886 7.78656C98.0573 8.27498 97.7774 8.94978 97.7486 9.81096L103.391 8.82768C103.233 8.28784 102.91 7.85725 102.422 7.53592C101.934 7.21458 101.345 7.05392 100.656 7.05392Z" fill="#505458"/>
<path d="M115.944 4.77888C117.38 4.77888 118.535 5.16448 119.411 5.93568C120.301 6.70688 120.746 7.85082 120.746 9.36752V15.3058H117.387V9.83024C117.387 9.00762 117.186 8.39709 116.784 7.99864C116.382 7.58733 115.8 7.38168 115.039 7.38168C114.192 7.38168 113.517 7.61946 113.015 8.09504C112.512 8.55776 112.261 9.25184 112.261 10.1773V15.3058H108.901V4.93312H112.11V6.14776C112.555 5.71075 113.108 5.37656 113.769 5.1452C114.429 4.90099 115.154 4.77888 115.944 4.77888Z" fill="#505458"/>
<path d="M130.77 14.8045C130.439 15.023 130.03 15.1901 129.542 15.3058C129.068 15.4086 128.573 15.46 128.056 15.46C126.663 15.46 125.594 15.1451 124.847 14.5153C124.101 13.8855 123.727 12.96 123.727 11.739V2.6388H127.087V5.16448H129.951V7.47808H127.087V11.7004C127.087 12.1374 127.209 12.478 127.453 12.7222C127.697 12.9536 128.049 13.0693 128.508 13.0693C129.025 13.0693 129.485 12.9407 129.887 12.6837L130.77 14.8045Z" fill="#505458"/>
<path d="M144.068 4.93312V15.3058H140.86V14.1104C140.027 15.0101 138.821 15.46 137.241 15.46C136.15 15.46 135.16 15.2415 134.269 14.8045C133.394 14.3675 132.704 13.7441 132.202 12.9343C131.699 12.1246 131.448 11.1863 131.448 10.1194C131.448 9.05261 131.699 8.11432 132.202 7.30456C132.704 6.4948 133.394 5.87141 134.269 5.4344C135.16 4.99739 136.15 4.77888 137.241 4.77888C138.72 4.77888 139.876 5.19661 140.709 6.03208V4.93312H144.068ZM137.823 12.9922C138.67 12.9922 139.374 12.7351 139.934 12.221C140.493 11.694 140.773 10.9935 140.773 10.1194C140.773 9.24541 140.493 8.55133 139.934 8.0372C139.374 7.51021 138.67 7.24672 137.823 7.24672C136.961 7.24672 136.251 7.51021 135.691 8.0372C135.131 8.55133 134.851 9.24541 134.851 10.1194C134.851 10.9935 135.131 11.694 135.691 12.221C136.251 12.7351 136.961 12.9922 137.823 12.9922Z" fill="#505458"/>
<path d="M151.336 15.46C150.029 15.46 149.01 15.1515 148.277 14.5346C147.545 13.9047 147.179 13.0179 147.179 11.8739V1H150.539V11.7004C150.539 12.1374 150.661 12.478 150.905 12.7222C151.163 12.9536 151.522 13.0693 151.982 13.0693C152.154 13.0693 152.326 13.05 152.498 13.0114C152.685 12.9729 152.829 12.9279 152.929 12.8765L153.08 15.2094C152.52 15.3764 151.939 15.46 151.336 15.46Z" fill="#505458"/>
<path d="M123.886 19.3379V24.1721H121.411V22.1901H116.554V24.1721H114.08V19.3379H116.554V21.244H121.411V19.3379H123.886Z" fill="#505458"/>
<path d="M133.228 24.1721L131.166 22.8254H128.89V24.1721H126.415V19.3379H131.043C131.99 19.3379 132.81 19.4092 133.503 19.552C134.205 19.6947 134.745 19.8973 135.122 20.1597C135.498 20.4221 135.687 20.7329 135.687 21.092C135.687 21.4511 135.493 21.7619 135.106 22.0243C134.73 22.2822 134.19 22.4801 133.487 22.6183L135.885 24.1721H133.228ZM133.182 21.092C133.182 20.8204 132.988 20.6132 132.601 20.4705C132.214 20.3231 131.649 20.2495 130.906 20.2495H128.89V21.9346H130.906C131.649 21.9346 132.214 21.8609 132.601 21.7136C132.988 21.5662 133.182 21.3591 133.182 21.092Z" fill="#505458"/>
<path d="M141.313 20.2357V23.2743H143.161V24.1721H136.975V23.2743H138.839V20.2357H136.975V19.3379H143.161V20.2357H141.313Z" fill="#505458"/>
<path d="M148.544 24.255C147.698 24.255 146.879 24.2044 146.084 24.1031C145.3 23.9972 144.669 23.8614 144.191 23.6956L145.031 22.8531C145.489 23.005 146.034 23.127 146.665 23.2191C147.296 23.3112 147.928 23.3572 148.559 23.3572C149.261 23.3572 149.781 23.3112 150.117 23.2191C150.453 23.1224 150.621 22.9958 150.621 22.8393C150.621 22.7242 150.519 22.6298 150.315 22.5561C150.122 22.4778 149.867 22.4157 149.552 22.3696C149.246 22.3236 148.829 22.273 148.299 22.2177C147.485 22.1302 146.818 22.0428 146.298 21.9553C145.779 21.8678 145.331 21.7274 144.954 21.534C144.588 21.3406 144.404 21.0828 144.404 20.7605C144.404 20.4797 144.572 20.2265 144.908 20.0009C145.244 19.7707 145.748 19.5888 146.421 19.4553C147.103 19.3218 147.933 19.255 148.91 19.255C149.592 19.255 150.259 19.2918 150.911 19.3655C151.563 19.4392 152.133 19.5451 152.622 19.6832L151.858 20.5326C150.87 20.2794 149.883 20.1528 148.895 20.1528C148.202 20.1528 147.688 20.2034 147.352 20.3047C147.026 20.406 146.863 20.5395 146.863 20.7053C146.863 20.871 147.052 20.9953 147.429 21.0782C147.816 21.1565 148.401 21.2347 149.185 21.313C150 21.4005 150.667 21.488 151.186 21.5754C151.705 21.6629 152.148 21.801 152.515 21.9898C152.892 22.1786 153.08 22.4341 153.08 22.7564C153.08 23.0326 152.907 23.2859 152.561 23.5161C152.225 23.7417 151.715 23.9212 151.033 24.0547C150.351 24.1882 149.521 24.255 148.544 24.255Z" fill="#505458"/>
</svg>
